<svg width="40" height="40" viewBox="0 0 40 40" fill="none" xmlns="http://www.w3.org/2000/svg">
<rect width="40" height="40" rx="5" fill="#212121" fill-opacity="0.686275"/>
<path d="M19.0732 27.5732C23.7677 27.5732 27.5732 23.7677 27.5732 19.0732C27.5732 14.3787 23.7677 10.5732 19.0732 10.5732C14.3787 10.5732 10.5732 14.3787 10.5732 19.0732C10.5732 23.7677 14.3787 27.5732 19.0732 27.5732Z" stroke="white" stroke-width="2" stroke-linejoin="round"/>
<path d="M21.9018 15.7447C21.5306 15.3729 21.0897 15.078 20.6043 14.8769C20.1189 14.6759 19.5986 14.5727 19.0733 14.5732C18.5479 14.5727 18.0276 14.6759 17.5422 14.8769C17.0568 15.078 16.6159 15.3729 16.2448 15.7447M25.1843 25.1842L29.4268 29.4267" stroke="white" stroke-width="2" stroke-linecap="round" stroke-linejoin="round"/>
</svg>
