<svg width="40" height="40" viewBox="0 0 40 40" fill="none" xmlns="http://www.w3.org/2000/svg">
<rect width="40" height="40" rx="5" fill="#0D47A1"/>
<path d="M16.8209 8.016H18.0689V14.484H16.8209V8.016ZM17.7329 10.728H19.6169V11.772H17.7329V10.728ZM13.7369 8.784H15.0929C15.0929 9.744 14.8889 10.608 14.4809 11.376C14.0729 12.136 13.4889 12.792 12.7289 13.344C11.9769 13.888 11.0649 14.312 9.99294 14.616L9.47694 13.608C10.3889 13.352 11.1609 13.016 11.7929 12.6C12.4249 12.176 12.9049 11.692 13.2329 11.148C13.5689 10.604 13.7369 10.016 13.7369 9.384V8.784ZM9.98094 8.784H14.4809V9.804H9.98094V8.784ZM14.5889 14.628C15.3169 14.628 15.9489 14.716 16.4849 14.892C17.0289 15.068 17.4489 15.32 17.7449 15.648C18.0489 15.968 18.2009 16.352 18.2009 16.8C18.2009 17.248 18.0489 17.636 17.7449 17.964C17.4489 18.284 17.0289 18.532 16.4849 18.708C15.9489 18.892 15.3169 18.984 14.5889 18.984C13.8609 18.984 13.2209 18.892 12.6689 18.708C12.1249 18.532 11.7049 18.284 11.4089 17.964C11.1129 17.636 10.9649 17.248 10.9649 16.8C10.9649 16.352 11.1129 15.968 11.4089 15.648C11.7049 15.32 12.1249 15.068 12.6689 14.892C13.2209 14.716 13.8609 14.628 14.5889 14.628ZM14.5889 15.612C14.1009 15.612 13.6769 15.66 13.3169 15.756C12.9649 15.844 12.6889 15.98 12.4889 16.164C12.2969 16.34 12.2009 16.552 12.2009 16.8C12.2009 17.048 12.2969 17.264 12.4889 17.448C12.6889 17.624 12.9649 17.76 13.3169 17.856C13.6769 17.944 14.1009 17.988 14.5889 17.988C15.0769 17.988 15.4969 17.944 15.8489 17.856C16.2089 17.76 16.4849 17.624 16.6769 17.448C16.8689 17.264 16.9649 17.048 16.9649 16.8C16.9649 16.552 16.8689 16.34 16.6769 16.164C16.4849 15.98 16.2089 15.844 15.8489 15.756C15.4969 15.66 15.0769 15.612 14.5889 15.612ZM24.092 8.784C24.668 8.784 25.18 8.896 25.628 9.12C26.076 9.344 26.428 9.656 26.684 10.056C26.94 10.448 27.068 10.904 27.068 11.424C27.068 11.936 26.94 12.392 26.684 12.792C26.428 13.192 26.076 13.504 25.628 13.728C25.18 13.952 24.668 14.064 24.092 14.064C23.524 14.064 23.016 13.952 22.568 13.728C22.12 13.504 21.764 13.192 21.5 12.792C21.244 12.392 21.116 11.936 21.116 11.424C21.116 10.904 21.244 10.448 21.5 10.056C21.764 9.656 22.12 9.344 22.568 9.12C23.016 8.896 23.524 8.784 24.092 8.784ZM24.092 9.876C23.764 9.876 23.464 9.94 23.192 10.068C22.928 10.188 22.72 10.364 22.568 10.596C22.416 10.828 22.34 11.104 22.34 11.424C22.34 11.736 22.416 12.012 22.568 12.252C22.72 12.484 22.928 12.664 23.192 12.792C23.464 12.92 23.764 12.984 24.092 12.984C24.428 12.984 24.724 12.92 24.98 12.792C25.244 12.664 25.452 12.484 25.604 12.252C25.756 12.012 25.832 11.736 25.832 11.424C25.832 11.104 25.756 10.828 25.604 10.596C25.452 10.364 25.244 10.188 24.98 10.068C24.724 9.94 24.428 9.876 24.092 9.876ZM28.316 8.016H29.576V19.008H28.316V8.016ZM20.768 16.68L20.6 15.648C21.264 15.648 21.992 15.644 22.784 15.636C23.576 15.62 24.388 15.588 25.22 15.54C26.06 15.484 26.872 15.396 27.656 15.276L27.752 16.2C26.944 16.352 26.124 16.464 25.292 16.536C24.468 16.6 23.668 16.64 22.892 16.656C22.116 16.672 21.408 16.68 20.768 16.68ZM8.24141 25.004H10.5694V26.012H8.24141V25.004ZM8.15741 27.74H10.5454V28.76H8.15741V27.74ZM12.1654 22.016H13.3654V32.984H12.1654V22.016ZM9.93341 22.28H11.1214V32.456H9.93341V22.28ZM7.48541 23.36H8.68541C8.68541 24.36 8.55741 25.304 8.30141 26.192C8.04541 27.072 7.61741 27.888 7.01741 28.64C6.42541 29.392 5.63341 30.068 4.64141 30.668L3.92141 29.768C4.76141 29.264 5.44141 28.7 5.96141 28.076C6.48941 27.452 6.87341 26.768 7.11341 26.024C7.36141 25.28 7.48541 24.476 7.48541 23.612V23.36ZM4.46141 23.36H7.92941V24.38H4.46141V23.36ZM15.4285 22.928H21.8485V23.852H15.4285V22.928ZM18.6325 24.2C19.1685 24.2 19.6325 24.268 20.0245 24.404C20.4245 24.54 20.7365 24.728 20.9605 24.968C21.1845 25.208 21.2965 25.496 21.2965 25.832C21.2965 26.168 21.1845 26.46 20.9605 26.708C20.7365 26.956 20.4245 27.148 20.0245 27.284C19.6325 27.412 19.1685 27.476 18.6325 27.476C18.1045 27.476 17.6405 27.412 17.2405 27.284C16.8405 27.148 16.5285 26.956 16.3045 26.708C16.0885 26.46 15.9805 26.168 15.9805 25.832C15.9805 25.496 16.0885 25.208 16.3045 24.968C16.5285 24.728 16.8405 24.54 17.2405 24.404C17.6405 24.268 18.1045 24.2 18.6325 24.2ZM18.6325 25.052C18.1925 25.052 17.8405 25.12 17.5765 25.256C17.3125 25.392 17.1805 25.584 17.1805 25.832C17.1805 26.072 17.3125 26.264 17.5765 26.408C17.8485 26.552 18.2005 26.624 18.6325 26.624C19.0805 26.624 19.4365 26.552 19.7005 26.408C19.9645 26.264 20.0965 26.072 20.0965 25.832C20.0965 25.584 19.9645 25.392 19.7005 25.256C19.4365 25.12 19.0805 25.052 18.6325 25.052ZM18.0085 21.944H19.2685V23.408H18.0085V21.944ZM18.0085 26.996H19.2685V28.508H18.0085V26.996ZM22.8205 22.04H24.0685V29.408H22.8205V22.04ZM16.6285 29.888H24.0685V32.996H22.8205V30.872H16.6285V29.888ZM15.2485 29.12L15.0925 28.148C15.7565 28.148 16.4805 28.144 17.2645 28.136C18.0565 28.128 18.8605 28.1 19.6765 28.052C20.4925 28.004 21.2805 27.928 22.0405 27.824L22.1245 28.688C21.3405 28.824 20.5445 28.924 19.7365 28.988C18.9285 29.044 18.1405 29.08 17.3725 29.096C16.6045 29.112 15.8965 29.12 15.2485 29.12ZM31.5675 25.616H34.5555V26.636H31.5675V25.616ZM28.7715 22.916H29.7915V24.716C29.7915 25.364 29.7235 25.996 29.5875 26.612C29.4515 27.22 29.2515 27.792 28.9875 28.328C28.7315 28.856 28.4155 29.328 28.0395 29.744C27.6715 30.152 27.2515 30.476 26.7795 30.716L25.9995 29.72C26.4315 29.512 26.8155 29.232 27.1515 28.88C27.4955 28.528 27.7875 28.128 28.0275 27.68C28.2755 27.224 28.4595 26.748 28.5795 26.252C28.7075 25.748 28.7715 25.236 28.7715 24.716V22.916ZM29.0235 22.916H30.0315V24.716C30.0315 25.22 30.0915 25.72 30.2115 26.216C30.3395 26.704 30.5235 27.164 30.7635 27.596C31.0035 28.02 31.2915 28.4 31.6275 28.736C31.9635 29.072 32.3435 29.336 32.7675 29.528L32.0115 30.536C31.5395 30.296 31.1195 29.98 30.7515 29.588C30.3835 29.188 30.0715 28.732 29.8155 28.22C29.5595 27.708 29.3635 27.156 29.2275 26.564C29.0915 25.964 29.0235 25.348 29.0235 24.716V22.916ZM33.9195 22.016H35.1795V33.008H33.9195V22.016Z" fill="white"/>
</svg>
