<svg width="40" height="40" viewBox="0 0 40 40" fill="none" xmlns="http://www.w3.org/2000/svg">
<rect width="40" height="40" rx="5" fill="#0D47A1"/>
<path d="M16.996 15.088H17.992V23.044H16.996V15.088ZM11.02 24.88H18.328V25.696H11.02V24.88ZM11.02 22.312H12.016V25.264H11.02V22.312ZM11.92 15.688H12.748V16.78C12.748 17.492 12.624 18.16 12.376 18.784C12.128 19.4 11.776 19.944 11.32 20.416C10.872 20.88 10.344 21.236 9.736 21.484L9.208 20.692C9.76 20.476 10.236 20.168 10.636 19.768C11.044 19.368 11.36 18.912 11.584 18.4C11.808 17.88 11.92 17.34 11.92 16.78V15.688ZM12.1 15.688H12.928V16.78C12.928 17.188 12.992 17.584 13.12 17.968C13.248 18.344 13.432 18.696 13.672 19.024C13.912 19.352 14.196 19.644 14.524 19.9C14.86 20.148 15.228 20.344 15.628 20.488L15.112 21.28C14.512 21.048 13.984 20.712 13.528 20.272C13.08 19.824 12.728 19.304 12.472 18.712C12.224 18.112 12.1 17.468 12.1 16.78V15.688ZM22.8511 16.936H23.6551V17.392C23.6551 18.024 23.5311 18.612 23.2831 19.156C23.0351 19.692 22.6831 20.164 22.2271 20.572C21.7791 20.972 21.2511 21.276 20.6431 21.484L20.1631 20.704C20.6991 20.528 21.1671 20.276 21.5671 19.948C21.9671 19.612 22.2791 19.224 22.5031 18.784C22.7351 18.344 22.8511 17.88 22.8511 17.392V16.936ZM23.0191 16.936H23.8351V17.392C23.8351 17.728 23.8991 18.052 24.0271 18.364C24.1631 18.676 24.3511 18.968 24.5911 19.24C24.8311 19.504 25.1191 19.736 25.4551 19.936C25.7911 20.136 26.1591 20.296 26.5591 20.416L26.0911 21.196C25.4831 21.012 24.9471 20.736 24.4831 20.368C24.0271 19.992 23.6671 19.552 23.4031 19.048C23.1471 18.536 23.0191 17.984 23.0191 17.392V16.936ZM20.4391 16.384H26.2351V17.188H20.4391V16.384ZM22.8511 15.028H23.8471V16.672H22.8511V15.028ZM25.8991 18.172H28.3471V18.988H25.8991V18.172ZM28.0711 15.076H29.0671V21.652H28.0711V15.076ZM25.4911 21.94C26.6191 21.94 27.5031 22.116 28.1431 22.468C28.7831 22.812 29.1031 23.296 29.1031 23.92C29.1031 24.544 28.7831 25.032 28.1431 25.384C27.5031 25.736 26.6191 25.912 25.4911 25.912C24.3711 25.912 23.4871 25.736 22.8391 25.384C22.1991 25.032 21.8791 24.544 21.8791 23.92C21.8791 23.296 22.1991 22.812 22.8391 22.468C23.4871 22.116 24.3711 21.94 25.4911 21.94ZM25.4911 22.72C24.9471 22.72 24.4791 22.768 24.0871 22.864C23.6951 22.952 23.3911 23.088 23.1751 23.272C22.9671 23.448 22.8631 23.664 22.8631 23.92C22.8631 24.176 22.9671 24.396 23.1751 24.58C23.3911 24.756 23.6951 24.892 24.0871 24.988C24.4791 25.084 24.9471 25.132 25.4911 25.132C26.0431 25.132 26.5111 25.084 26.8951 24.988C27.2871 24.892 27.5871 24.756 27.7951 24.58C28.0111 24.396 28.1191 24.176 28.1191 23.92C28.1191 23.664 28.0111 23.448 27.7951 23.272C27.5871 23.088 27.2871 22.952 26.8951 22.864C26.5111 22.768 26.0431 22.72 25.4911 22.72Z" fill="white"/>
</svg>
