<svg width="40" height="40" viewBox="0 0 40 40" fill="none" xmlns="http://www.w3.org/2000/svg">
<rect width="40" height="40" rx="5" fill="#0D47A1"/>
<path d="M11.644 15.58H12.676V16.648C12.676 17.344 12.556 17.996 12.316 18.604C12.076 19.212 11.728 19.74 11.272 20.188C10.824 20.636 10.272 20.976 9.616 21.208L8.98 20.2C9.556 20.008 10.04 19.732 10.432 19.372C10.832 19.012 11.132 18.6 11.332 18.136C11.54 17.664 11.644 17.168 11.644 16.648V15.58ZM11.884 15.58H12.904V16.756C12.904 17.108 12.96 17.452 13.072 17.788C13.192 18.124 13.36 18.436 13.576 18.724C13.792 19.012 14.06 19.272 14.38 19.504C14.7 19.728 15.064 19.908 15.472 20.044L14.848 21.028C14.224 20.812 13.688 20.492 13.24 20.068C12.8 19.644 12.464 19.148 12.232 18.58C12 18.004 11.884 17.396 11.884 16.756V15.58ZM16.36 15.028H17.608V21.652H16.36V15.028ZM17.272 17.812H19.156V18.856H17.272V17.812ZM10.408 22.168H17.608V25.996H16.36V23.188H10.408V22.168ZM28.2391 15.016H29.4391V25.984H28.2391V15.016ZM24.4111 18.88H26.3911V19.9H24.4111V18.88ZM26.0431 15.244H27.2191V25.456H26.0431V15.244ZM22.2031 16.756H23.1511V18.04C23.1511 18.64 23.0991 19.236 22.9951 19.828C22.8991 20.412 22.7471 20.96 22.5391 21.472C22.3391 21.984 22.0831 22.448 21.7711 22.864C21.4591 23.272 21.0951 23.604 20.6791 23.86L19.9111 22.936C20.4391 22.608 20.8711 22.188 21.2071 21.676C21.5431 21.156 21.7911 20.584 21.9511 19.96C22.1191 19.328 22.2031 18.688 22.2031 18.04V16.756ZM22.4671 16.756H23.4151V18.04C23.4151 18.664 23.4951 19.276 23.6551 19.876C23.8151 20.476 24.0591 21.02 24.3871 21.508C24.7231 21.988 25.1471 22.38 25.6591 22.684L24.9151 23.596C24.3631 23.26 23.9071 22.808 23.5471 22.24C23.1871 21.664 22.9151 21.016 22.7311 20.296C22.5551 19.576 22.4671 18.824 22.4671 18.04V16.756ZM20.2591 16.216H25.2151V17.248H20.2591V16.216Z" fill="white"/>
</svg>
