<svg width="40" height="40" viewBox="0 0 40 40" fill="none" xmlns="http://www.w3.org/2000/svg">
<g clip-path="url(#clip0_3592_1556)">
<rect width="40" height="40" rx="5" fill="#4CAF50"/>
<g clip-path="url(#clip1_3592_1556)">
<path d="M12.546 13.8406C14.7756 16.2531 16.9375 18.425 19.0156 21.1718C21.275 16.6781 23.5875 12.1687 27.4031 7.28527L26.375 6.81433C23.1531 10.2312 20.65 13.4656 18.475 17.3093C16.9625 15.9468 14.5181 14.0187 13.0256 13.0281L12.546 13.8406Z" fill="white"/>
</g>
<path d="M5.66 24.05H6.39V24.56C6.39 24.9067 6.32333 25.2333 6.19 25.54C6.05667 25.84 5.87333 26.1167 5.64 26.37C5.41333 26.6233 5.14667 26.85 4.84 27.05C4.53333 27.25 4.2 27.4167 3.84 27.55C3.48667 27.6833 3.12333 27.78 2.75 27.84L2.41 27.17C2.74333 27.1233 3.06667 27.0433 3.38 26.93C3.7 26.8167 3.99667 26.68 4.27 26.52C4.54333 26.3533 4.78333 26.1667 4.99 25.96C5.20333 25.7533 5.36667 25.5333 5.48 25.3C5.6 25.06 5.66 24.8133 5.66 24.56V24.05ZM5.8 24.05H6.52V24.56C6.52 24.8133 6.58 25.0567 6.7 25.29C6.82 25.5233 6.98333 25.7433 7.19 25.95C7.40333 26.1567 7.64667 26.3433 7.92 26.51C8.19333 26.6767 8.48667 26.8167 8.8 26.93C9.12 27.0433 9.44333 27.1233 9.77 27.17L9.44 27.84C9.06667 27.78 8.70333 27.6833 8.35 27.55C7.99667 27.41 7.66333 27.24 7.35 27.04C7.04333 26.84 6.77333 26.6133 6.54 26.36C6.31333 26.1067 6.13333 25.83 6 25.53C5.86667 25.2233 5.8 24.9 5.8 24.56V24.05ZM5.66 29.34H6.48V32.78H5.66V29.34ZM2 28.82H10.17V29.51H2V28.82ZM17.3892 23.73H18.2192V29.14H17.3892V23.73ZM17.9892 26.07H19.5492V26.76H17.9892V26.07ZM14.8892 24.4H15.7692C15.7692 25.1667 15.5992 25.8633 15.2592 26.49C14.9192 27.1167 14.4326 27.6567 13.7992 28.11C13.1726 28.5633 12.4226 28.9167 11.5492 29.17L11.2092 28.5C11.9759 28.2733 12.6326 27.9767 13.1792 27.61C13.7259 27.2433 14.1459 26.82 14.4392 26.34C14.7392 25.86 14.8892 25.3367 14.8892 24.77V24.4ZM11.5992 24.4H15.3592V25.08H11.5992V24.4ZM15.3792 29.25C15.9792 29.25 16.4992 29.32 16.9392 29.46C17.3792 29.6 17.7192 29.8033 17.9592 30.07C18.1992 30.33 18.3192 30.6433 18.3192 31.01C18.3192 31.37 18.1992 31.68 17.9592 31.94C17.7192 32.2 17.3792 32.4 16.9392 32.54C16.4992 32.6867 15.9792 32.76 15.3792 32.76C14.7859 32.76 14.2659 32.6867 13.8192 32.54C13.3792 32.4 13.0359 32.2 12.7892 31.94C12.5492 31.68 12.4292 31.37 12.4292 31.01C12.4292 30.6433 12.5492 30.33 12.7892 30.07C13.0359 29.8033 13.3792 29.6 13.8192 29.46C14.2659 29.32 14.7859 29.25 15.3792 29.25ZM15.3792 29.91C14.9526 29.91 14.5792 29.9567 14.2592 30.05C13.9392 30.1367 13.6892 30.2633 13.5092 30.43C13.3359 30.59 13.2492 30.7833 13.2492 31.01C13.2492 31.23 13.3359 31.4233 13.5092 31.59C13.6892 31.75 13.9392 31.8767 14.2592 31.97C14.5792 32.0567 14.9526 32.1 15.3792 32.1C15.8192 32.1 16.1959 32.0567 16.5092 31.97C16.8226 31.8767 17.0659 31.75 17.2392 31.59C17.4192 31.4233 17.5092 31.23 17.5092 31.01C17.5092 30.7833 17.4192 30.59 17.2392 30.43C17.0659 30.2633 16.8226 30.1367 16.5092 30.05C16.1959 29.9567 15.8192 29.91 15.3792 29.91ZM26.9784 23.74H27.8084V30.37H26.9784V23.74ZM21.9984 31.9H28.0884V32.58H21.9984V31.9ZM21.9984 29.76H22.8284V32.22H21.9984V29.76ZM22.7484 24.24H23.4384V25.15C23.4384 25.7433 23.3351 26.3 23.1284 26.82C22.9218 27.3333 22.6284 27.7867 22.2484 28.18C21.8751 28.5667 21.4351 28.8633 20.9284 29.07L20.4884 28.41C20.9484 28.23 21.3451 27.9733 21.6784 27.64C22.0184 27.3067 22.2818 26.9267 22.4684 26.5C22.6551 26.0667 22.7484 25.6167 22.7484 25.15V24.24ZM22.8984 24.24H23.5884V25.15C23.5884 25.49 23.6418 25.82 23.7484 26.14C23.8551 26.4533 24.0084 26.7467 24.2084 27.02C24.4084 27.2933 24.6451 27.5367 24.9184 27.75C25.1984 27.9567 25.5051 28.12 25.8384 28.24L25.4084 28.9C24.9084 28.7067 24.4684 28.4267 24.0884 28.06C23.7151 27.6867 23.4218 27.2533 23.2084 26.76C23.0018 26.26 22.8984 25.7233 22.8984 25.15V24.24ZM31.8577 25.28H32.5277V25.66C32.5277 26.1867 32.4243 26.6767 32.2177 27.13C32.011 27.5767 31.7177 27.97 31.3377 28.31C30.9643 28.6433 30.5243 28.8967 30.0177 29.07L29.6177 28.42C30.0643 28.2733 30.4543 28.0633 30.7877 27.79C31.121 27.51 31.381 27.1867 31.5677 26.82C31.761 26.4533 31.8577 26.0667 31.8577 25.66V25.28ZM31.9977 25.28H32.6777V25.66C32.6777 25.94 32.731 26.21 32.8377 26.47C32.951 26.73 33.1077 26.9733 33.3077 27.2C33.5077 27.42 33.7477 27.6133 34.0277 27.78C34.3077 27.9467 34.6143 28.08 34.9477 28.18L34.5577 28.83C34.051 28.6767 33.6043 28.4467 33.2177 28.14C32.8377 27.8267 32.5377 27.46 32.3177 27.04C32.1043 26.6133 31.9977 26.1533 31.9977 25.66V25.28ZM29.8477 24.82H34.6777V25.49H29.8477V24.82ZM31.8577 23.69H32.6877V25.06H31.8577V23.69ZM34.3977 26.31H36.4377V26.99H34.3977V26.31ZM36.2077 23.73H37.0377V29.21H36.2077V23.73ZM34.0577 29.45C34.9977 29.45 35.7343 29.5967 36.2677 29.89C36.801 30.1767 37.0677 30.58 37.0677 31.1C37.0677 31.62 36.801 32.0267 36.2677 32.32C35.7343 32.6133 34.9977 32.76 34.0577 32.76C33.1243 32.76 32.3877 32.6133 31.8477 32.32C31.3143 32.0267 31.0477 31.62 31.0477 31.1C31.0477 30.58 31.3143 30.1767 31.8477 29.89C32.3877 29.5967 33.1243 29.45 34.0577 29.45ZM34.0577 30.1C33.6043 30.1 33.2143 30.14 32.8877 30.22C32.561 30.2933 32.3077 30.4067 32.1277 30.56C31.9543 30.7067 31.8677 30.8867 31.8677 31.1C31.8677 31.3133 31.9543 31.4967 32.1277 31.65C32.3077 31.7967 32.561 31.91 32.8877 31.99C33.2143 32.07 33.6043 32.11 34.0577 32.11C34.5177 32.11 34.9077 32.07 35.2277 31.99C35.5543 31.91 35.8043 31.7967 35.9777 31.65C36.1577 31.4967 36.2477 31.3133 36.2477 31.1C36.2477 30.8867 36.1577 30.7067 35.9777 30.56C35.8043 30.4067 35.5543 30.2933 35.2277 30.22C34.9077 30.14 34.5177 30.1 34.0577 30.1Z" fill="white"/>
</g>
<defs>
<clipPath id="clip0_3592_1556">
<rect width="40" height="40" fill="white"/>
</clipPath>
<clipPath id="clip1_3592_1556">
<rect width="16" height="16" fill="white" transform="translate(12 6)"/>
</clipPath>
</defs>
</svg>
