<svg width="48" height="48" viewBox="0 0 48 48" fill="none" xmlns="http://www.w3.org/2000/svg">
<path d="M12 24C12 25.5759 12.3104 27.1363 12.9134 28.5922C13.5165 30.0481 14.4004 31.371 15.5147 32.4853C16.629 33.5996 17.9519 34.4835 19.4078 35.0866C20.8637 35.6896 22.4241 36 24 36C25.5759 36 27.1363 35.6896 28.5922 35.0866C30.0481 34.4835 31.371 33.5996 32.4853 32.4853C33.5996 31.371 34.4835 30.0481 35.0866 28.5922C35.6896 27.1363 36 25.5759 36 24C36 20.8174 34.7357 17.7652 32.4853 15.5147C30.2348 13.2643 27.1826 12 24 12C20.8174 12 17.7652 13.2643 15.5147 15.5147C13.2643 17.7652 12 20.8174 12 24Z" stroke="#212121" stroke-opacity="0.686275" stroke-width="2" stroke-linecap="round" stroke-linejoin="round"/>
<path d="M24 17.3333V24L28 28" stroke="#212121" stroke-opacity="0.686275" stroke-width="2" stroke-linecap="round" stroke-linejoin="round"/>
</svg>
