<svg width="48" height="48" viewBox="0 0 48 48" fill="none" xmlns="http://www.w3.org/2000/svg">
<path fill-rule="evenodd" clip-rule="evenodd" d="M25.2 29.4H27.3C31.4424 29.4 34.8 26.0424 34.8 21.9C34.8 17.7576 31.4424 14.4 27.3 14.4H20.7C16.5576 14.4 13.2 17.7576 13.2 21.9C13.2 26.649 16.3302 29.5524 19.7544 31.3356C21.4554 32.2218 23.1684 32.7936 24.4638 33.1446C24.7298 33.2166 24.9752 33.2792 25.2 33.3324V29.4ZM26.4 34.8C26.4 34.8 25.9464 34.734 25.2 34.5648C21.7416 33.78 12 30.783 12 21.9C12 17.0952 15.8952 13.2 20.7 13.2H27.3C32.1048 13.2 36 17.0952 36 21.9C36 26.7048 32.1048 30.6 27.3 30.6H26.4V34.8Z" fill="#212121" fill-opacity="0.686275"/>
<path fill-rule="evenodd" clip-rule="evenodd" d="M24 22.8C24.1592 22.8 24.3118 22.7368 24.4243 22.6243C24.5368 22.5118 24.6 22.3592 24.6 22.2C24.6 22.0409 24.5368 21.8883 24.4243 21.7758C24.3118 21.6632 24.1592 21.6 24 21.6C23.8409 21.6 23.6883 21.6632 23.5758 21.7758C23.4632 21.8883 23.4 22.0409 23.4 22.2C23.4 22.3592 23.4632 22.5118 23.5758 22.6243C23.6883 22.7368 23.8409 22.8 24 22.8ZM24 24C24.4774 24 24.9353 23.8104 25.2728 23.4728C25.6104 23.1353 25.8 22.6774 25.8 22.2C25.8 21.7226 25.6104 21.2648 25.2728 20.9272C24.9353 20.5897 24.4774 20.4 24 20.4C23.5226 20.4 23.0648 20.5897 22.7272 20.9272C22.3897 21.2648 22.2 21.7226 22.2 22.2C22.2 22.6774 22.3897 23.1353 22.7272 23.4728C23.0648 23.8104 23.5226 24 24 24ZM28.8 22.8C28.9592 22.8 29.1118 22.7368 29.2243 22.6243C29.3368 22.5118 29.4 22.3592 29.4 22.2C29.4 22.0409 29.3368 21.8883 29.2243 21.7758C29.1118 21.6632 28.9592 21.6 28.8 21.6C28.6409 21.6 28.4883 21.6632 28.3758 21.7758C28.2632 21.8883 28.2 22.0409 28.2 22.2C28.2 22.3592 28.2632 22.5118 28.3758 22.6243C28.4883 22.7368 28.6409 22.8 28.8 22.8ZM28.8 24C29.2774 24 29.7352 23.8104 30.0728 23.4728C30.4104 23.1353 30.6 22.6774 30.6 22.2C30.6 21.7226 30.4104 21.2648 30.0728 20.9272C29.7352 20.5897 29.2774 20.4 28.8 20.4C28.3226 20.4 27.8648 20.5897 27.5272 20.9272C27.1897 21.2648 27 21.7226 27 22.2C27 22.6774 27.1897 23.1353 27.5272 23.4728C27.8648 23.8104 28.3226 24 28.8 24ZM19.2 22.8C19.3592 22.8 19.5118 22.7368 19.6243 22.6243C19.7368 22.5118 19.8 22.3592 19.8 22.2C19.8 22.0409 19.7368 21.8883 19.6243 21.7758C19.5118 21.6632 19.3592 21.6 19.2 21.6C19.0409 21.6 18.8883 21.6632 18.7758 21.7758C18.6632 21.8883 18.6 22.0409 18.6 22.2C18.6 22.3592 18.6632 22.5118 18.7758 22.6243C18.8883 22.7368 19.0409 22.8 19.2 22.8ZM19.2 24C19.6774 24 20.1353 23.8104 20.4728 23.4728C20.8104 23.1353 21 22.6774 21 22.2C21 21.7226 20.8104 21.2648 20.4728 20.9272C20.1353 20.5897 19.6774 20.4 19.2 20.4C18.7226 20.4 18.2648 20.5897 17.9272 20.9272C17.5897 21.2648 17.4 21.7226 17.4 22.2C17.4 22.6774 17.5897 23.1353 17.9272 23.4728C18.2648 23.8104 18.7226 24 19.2 24Z" fill="#212121" fill-opacity="0.686275"/>
</svg>
