<svg width="48" height="48" viewBox="0 0 48 48" fill="none" xmlns="http://www.w3.org/2000/svg">
<path d="M24 12C27.1826 12 30.2348 13.2643 32.4853 15.5147C34.7357 17.7652 36 20.8174 36 24C36 27.1826 34.7357 30.2348 32.4853 32.4853C30.2348 34.7357 27.1826 36 24 36C20.8174 36 17.7652 34.7357 15.5147 32.4853C13.2643 30.2348 12 27.1826 12 24C12 20.8174 13.2643 17.7652 15.5147 15.5147C17.7652 13.2643 20.8174 12 24 12ZM24 13.2632C21.1524 13.2632 18.4215 14.3944 16.4079 16.4079C14.3944 18.4215 13.2632 21.1524 13.2632 24C13.2632 26.8476 14.3944 29.5785 16.4079 31.5921C18.4215 33.6056 21.1524 34.7368 24 34.7368C25.41 34.7368 26.8062 34.4591 28.1088 33.9195C29.4115 33.38 30.5951 32.5891 31.5921 31.5921C32.5891 30.5951 33.38 29.4115 33.9195 28.1088C34.4591 26.8062 34.7368 25.41 34.7368 24C34.7368 21.1524 33.6056 18.4215 31.5921 16.4079C29.5785 14.3944 26.8476 13.2632 24 13.2632ZM23.3684 18.3158V20.8421H24.6316V18.3158H23.3684ZM23.3684 23.3684V29.6842H24.6316V23.3684H23.3684Z" fill="#212121" fill-opacity="0.686275"/>
</svg>
