<svg width="48" height="43" viewBox="0 0 48 43" fill="none" xmlns="http://www.w3.org/2000/svg">
<path d="M24 29.7857C23.2044 29.7857 22.4413 29.4746 21.8787 28.921C21.3161 28.3673 21 27.6163 21 26.8333C21 25.1948 22.335 23.8809 24 23.8809C24.7956 23.8809 25.5587 24.192 26.1213 24.7457C26.6839 25.2994 27 26.0503 27 26.8333C27 27.6163 26.6839 28.3673 26.1213 28.921C25.5587 29.4746 24.7956 29.7857 24 29.7857ZM33 34.2143V19.4524H15V34.2143H33ZM33 16.5C33.7957 16.5 34.5587 16.811 35.1213 17.3647C35.6839 17.9184 36 18.6694 36 19.4524V34.2143C36 34.9973 35.6839 35.7482 35.1213 36.3019C34.5587 36.8556 33.7957 37.1667 33 37.1667H15C14.2044 37.1667 13.4413 36.8556 12.8787 36.3019C12.3161 35.7482 12 34.9973 12 34.2143V19.4524C12 17.8138 13.335 16.5 15 16.5H16.5V13.5476C16.5 11.5901 17.2902 9.71268 18.6967 8.32849C20.1032 6.94429 22.0109 6.16666 24 6.16666C24.9849 6.16666 25.9602 6.35757 26.8701 6.7285C27.7801 7.09943 28.6069 7.6431 29.3033 8.32849C29.9997 9.01387 30.5522 9.82754 30.9291 10.723C31.306 11.6185 31.5 12.5783 31.5 13.5476V16.5H33ZM24 9.11904C22.8065 9.11904 21.6619 9.58562 20.818 10.4161C19.9741 11.2467 19.5 12.3731 19.5 13.5476V16.5H28.5V13.5476C28.5 12.3731 28.0259 11.2467 27.182 10.4161C26.3381 9.58562 25.1935 9.11904 24 9.11904Z" fill="#757575" fill-opacity="0.686275"/>
</svg>
