<svg width="48" height="49" viewBox="0 0 48 49" fill="none" xmlns="http://www.w3.org/2000/svg">
<path d="M23 40.5H11C10.4696 40.5 9.96086 40.2893 9.58579 39.9142C9.21071 39.5391 9 39.0304 9 38.5V10.5C9 9.96957 9.21071 9.46086 9.58579 9.08579C9.96086 8.71071 10.4696 8.5 11 8.5H21V14.5C21 16.0913 21.6321 17.6174 22.7574 18.7426C23.8826 19.8679 25.4087 20.5 27 20.5H33V30.5C33 31.0304 33.2107 31.5391 33.5858 31.9142C33.9609 32.2893 34.4696 32.5 35 32.5C35.5304 32.5 36.0391 32.2893 36.4142 31.9142C36.7893 31.5391 37 31.0304 37 30.5V18.38C36.9793 18.1962 36.9391 18.0152 36.88 17.84V17.66C36.7861 17.4531 36.6576 17.2637 36.5 17.1L24.5 5.1C24.3363 4.94244 24.1469 4.81394 23.94 4.72C23.8738 4.70881 23.8062 4.70881 23.74 4.72C23.5455 4.61601 23.3365 4.54184 23.12 4.5H11C9.4087 4.5 7.88258 5.13214 6.75736 6.25736C5.63214 7.38258 5 8.9087 5 10.5V38.5C5 40.0913 5.63214 41.6174 6.75736 42.7426C7.88258 43.8679 9.4087 44.5 11 44.5H23C23.5304 44.5 24.0391 44.2893 24.4142 43.9142C24.7893 43.5391 25 43.0304 25 42.5C25 41.9696 24.7893 41.4609 24.4142 41.0858C24.0391 40.7107 23.5304 40.5 23 40.5ZM25 11.32L30.18 16.5H27C26.4696 16.5 25.9609 16.2893 25.5858 15.9142C25.2107 15.5391 25 15.0304 25 14.5V11.32ZM15 28.5H27C27.5304 28.5 28.0391 28.2893 28.4142 27.9142C28.7893 27.5391 29 27.0304 29 26.5C29 25.9696 28.7893 25.4609 28.4142 25.0858C28.0391 24.7107 27.5304 24.5 27 24.5H15C14.4696 24.5 13.9609 24.7107 13.5858 25.0858C13.2107 25.4609 13 25.9696 13 26.5C13 27.0304 13.2107 27.5391 13.5858 27.9142C13.9609 28.2893 14.4696 28.5 15 28.5ZM23 32.5H15C14.4696 32.5 13.9609 32.7107 13.5858 33.0858C13.2107 33.4609 13 33.9696 13 34.5C13 35.0304 13.2107 35.5391 13.5858 35.9142C13.9609 36.2893 14.4696 36.5 15 36.5H23C23.5304 36.5 24.0391 36.2893 24.4142 35.9142C24.7893 35.5391 25 35.0304 25 34.5C25 33.9696 24.7893 33.4609 24.4142 33.0858C24.0391 32.7107 23.5304 32.5 23 32.5ZM15 20.5H17C17.5304 20.5 18.0391 20.2893 18.4142 19.9142C18.7893 19.5391 19 19.0304 19 18.5C19 17.9696 18.7893 17.4609 18.4142 17.0858C18.0391 16.7107 17.5304 16.5 17 16.5H15C14.4696 16.5 13.9609 16.7107 13.5858 17.0858C13.2107 17.4609 13 17.9696 13 18.5C13 19.0304 13.2107 19.5391 13.5858 19.9142C13.9609 20.2893 14.4696 20.5 15 20.5ZM42.42 33.08C42.2341 32.8925 42.0129 32.7438 41.7692 32.6422C41.5254 32.5407 41.264 32.4884 41 32.4884C40.736 32.4884 40.4746 32.5407 40.2308 32.6422C39.9871 32.7438 39.7659 32.8925 39.58 33.08L33 39.68L30.42 37.08C30.2335 36.8935 30.0121 36.7456 29.7685 36.6447C29.5249 36.5438 29.2637 36.4918 29 36.4918C28.7363 36.4918 28.4751 36.5438 28.2315 36.6447C27.9879 36.7456 27.7665 36.8935 27.58 37.08C27.3935 37.2665 27.2456 37.4879 27.1447 37.7315C27.0438 37.9751 26.9918 38.2363 26.9918 38.5C26.9918 38.7637 27.0438 39.0249 27.1447 39.2685C27.2456 39.5121 27.3935 39.7335 27.58 39.92L31.58 43.92C31.7659 44.1075 31.9871 44.2562 32.2308 44.3578C32.4746 44.4593 32.736 44.5116 33 44.5116C33.264 44.5116 33.5254 44.4593 33.7692 44.3578C34.0129 44.2562 34.2341 44.1075 34.42 43.92L42.42 35.92C42.6075 35.7341 42.7562 35.5129 42.8578 35.2692C42.9593 35.0254 43.0116 34.764 43.0116 34.5C43.0116 34.236 42.9593 33.9746 42.8578 33.7308C42.7562 33.4871 42.6075 33.2659 42.42 33.08Z" fill="white"/>
</svg>
