<svg width="48" height="49" viewBox="0 0 48 49" fill="none" xmlns="http://www.w3.org/2000/svg">
<path d="M31 28.5H29.42L28.86 27.96C30.8879 25.6081 32.0024 22.6054 32 19.5C32 16.9288 31.2376 14.4154 29.8091 12.2776C28.3807 10.1398 26.3503 8.47351 23.9749 7.48957C21.5995 6.50563 18.9856 6.24819 16.4638 6.7498C13.9421 7.25141 11.6257 8.48953 9.80762 10.3076C7.98953 12.1257 6.75141 14.4421 6.2498 16.9638C5.74819 19.4856 6.00563 22.0995 6.98957 24.4749C7.97351 26.8503 9.63975 28.8807 11.7776 30.3091C13.9154 31.7376 16.4288 32.5 19 32.5C22.22 32.5 25.18 31.32 27.46 29.36L28 29.92V31.5L38 41.48L40.98 38.5L31 28.5ZM19 28.5C14.02 28.5 10 24.48 10 19.5C10 14.52 14.02 10.5 19 10.5C23.98 10.5 28 14.52 28 19.5C28 24.48 23.98 28.5 19 28.5Z" fill="white"/>
</svg>
