<svg width="48" height="49" viewBox="0 0 48 49" fill="none" xmlns="http://www.w3.org/2000/svg">
<path d="M38 13.5H38.788C40.99 13.5 42.09 13.5 42.664 14.29C43.238 15.08 43 16.266 42.522 18.64C40.866 26.86 39.502 32.5 30.526 32.5H16L10.758 7.53C10.5417 6.66464 10.0424 5.89641 9.33934 5.34741C8.63633 4.79841 7.76998 4.50014 6.878 4.5H5M12 13.5H15M21 14.5C21 14.5 23 14.5 25 18.5C25 18.5 31.354 8.5 37 6.5M17.76 32.5H16.938C14.21 32.5 12 34.802 12 37.642C11.9976 37.7523 12.017 37.862 12.057 37.9649C12.097 38.0677 12.1569 38.1616 12.2332 38.2413C12.3096 38.321 12.4009 38.3848 12.5019 38.4292C12.6029 38.4736 12.7117 38.4977 12.822 38.5H35" stroke="white" stroke-width="3" stroke-linecap="round" stroke-linejoin="round"/>
<path d="M21 44.5C22.6569 44.5 24 43.1569 24 41.5C24 39.8431 22.6569 38.5 21 38.5C19.3431 38.5 18 39.8431 18 41.5C18 43.1569 19.3431 44.5 21 44.5Z" stroke="white" stroke-width="3" stroke-linecap="round" stroke-linejoin="round"/>
<path d="M35 44.5C36.6569 44.5 38 43.1569 38 41.5C38 39.8431 36.6569 38.5 35 38.5C33.3431 38.5 32 39.8431 32 41.5C32 43.1569 33.3431 44.5 35 44.5Z" stroke="white" stroke-width="3" stroke-linecap="round" stroke-linejoin="round"/>
</svg>
