<svg width="48" height="49" viewBox="0 0 48 49" fill="none" xmlns="http://www.w3.org/2000/svg">
<path d="M24 12.6667C25.5913 12.6667 27.1174 13.2988 28.2426 14.424C29.3679 15.5492 30 17.0754 30 18.6667C30 20.258 29.3679 21.7841 28.2426 22.9093C27.1174 24.0345 25.5913 24.6667 24 24.6667C22.4087 24.6667 20.8826 24.0345 19.7574 22.9093C18.6321 21.7841 18 20.258 18 18.6667C18 17.0754 18.6321 15.5492 19.7574 14.424C20.8826 13.2988 22.4087 12.6667 24 12.6667ZM24 15.6667C23.2044 15.6667 22.4413 15.9827 21.8787 16.5453C21.3161 17.1079 21 17.871 21 18.6667C21 19.4623 21.3161 20.2254 21.8787 20.788C22.4413 21.3506 23.2044 21.6667 24 21.6667C24.7956 21.6667 25.5587 21.3506 26.1213 20.788C26.6839 20.2254 27 19.4623 27 18.6667C27 17.871 26.6839 17.1079 26.1213 16.5453C25.5587 15.9827 24.7956 15.6667 24 15.6667ZM24 26.1667C28.005 26.1667 36 28.1617 36 32.1667V36.6667H12V32.1667C12 28.1617 19.995 26.1667 24 26.1667ZM24 29.0167C19.545 29.0167 14.85 31.2067 14.85 32.1667V33.8167H33.15V32.1667C33.15 31.2067 28.455 29.0167 24 29.0167Z" fill="#757575" fill-opacity="0.686275"/>
</svg>
