<svg width="48" height="48" viewBox="0 0 48 48" fill="none" xmlns="http://www.w3.org/2000/svg">
<path d="M33.672 16.9543C32.5647 15.4193 31.1108 14.1699 29.4296 13.3087C27.7484 12.4475 25.8878 11.999 24.0006 12C17.8256 12 12.7475 16.7029 12.1183 22.7383L12 23.8743L14.2643 24.1131L14.3815 22.976C14.5934 20.9644 15.4252 19.0693 16.7608 17.5553C18.0964 16.0412 19.8692 14.9837 21.8319 14.5302C23.7946 14.0767 25.8493 14.2499 27.7093 15.0255C29.5693 15.8012 31.1419 17.1407 32.2077 18.8571H27.9829V21.1429H35.9477V13.1429H33.672V16.9543ZM33.7369 23.8869L33.6185 25.024C33.4063 27.0353 32.5744 28.93 31.2389 30.4437C29.9034 31.9574 28.1308 33.0148 26.1684 33.4682C24.206 33.9217 22.1516 33.7487 20.2918 32.9733C18.4319 32.1979 16.8594 30.8588 15.7935 29.1429H20.0182V26.8571H12.0535V34.8571H14.3291V31.0457C15.4364 32.5807 16.8904 33.8301 18.5716 34.6913C20.2528 35.5525 22.1133 36.001 24.0006 36C30.1744 36 35.2536 31.2971 35.8817 25.2617L36 24.1257L33.7369 23.8869Z" fill="#212121" fill-opacity="0.686275"/>
</svg>
