<svg width="48" height="48" viewBox="0 0 48 48" fill="none" xmlns="http://www.w3.org/2000/svg">
<path d="M12 21.6V17.6C12 16.1148 12.59 14.6904 13.6402 13.6402C14.6904 12.59 16.1148 12 17.6 12C19.0852 12 20.5096 12.59 21.5598 13.6402C22.61 14.6904 23.2 16.1148 23.2 17.6V21.6M20 21.6H34.4C34.4 21.6 36 21.6 36 23.2V34.4C36 34.4 36 36 34.4 36H20C20 36 18.4 36 18.4 34.4V23.2C18.4 23.2 18.4 21.6 20 21.6Z" stroke="#212121" stroke-opacity="0.686275" stroke-width="3" stroke-linecap="round" stroke-linejoin="round"/>
<path d="M24.8 28.8C24.8 29.4365 25.0529 30.047 25.503 30.4971C25.9531 30.9472 26.5635 31.2 27.2 31.2C27.8366 31.2 28.447 30.9472 28.8971 30.4971C29.3472 30.047 29.6 29.4365 29.6 28.8C29.6 28.1635 29.3472 27.5531 28.8971 27.103C28.447 26.6529 27.8366 26.4 27.2 26.4C26.5635 26.4 25.9531 26.6529 25.503 27.103C25.0529 27.5531 24.8 28.1635 24.8 28.8Z" stroke="#212121" stroke-opacity="0.686275" stroke-width="3" stroke-linecap="round" stroke-linejoin="round"/>
</svg>
